<mxfile host="Electron" agent="Mozilla/5.0 (X11; Linux x86_64) AppleWebKit/537.36 (KHTML, like Gecko) draw.io/28.1.2 Chrome/138.0.7204.243 Electron/37.4.0 Safari/537.36" version="28.1.2">
  <diagram name="Page-1" id="PNlo5ZKO0bdKAz4ckstN">
    <mxGraphModel dx="3227" dy="1458" grid="1" gridSize="10" guides="1" tooltips="1" connect="1" arrows="1" fold="1" page="1" pageScale="1" pageWidth="850" pageHeight="1100" math="0" shadow="0">
      <root>
        <mxCell id="0" />
        <mxCell id="1" parent="0" />
        <mxCell id="4qrja9e9CyFXk5qWjHwn-1" value="&lt;font style=&quot;color: rgb(255, 181, 112);&quot;&gt;Txns Tracker&lt;/font&gt;" style="swimlane;whiteSpace=wrap;html=1;sketch=1;curveFitting=1;jiggle=2;fillColor=#d5e8d4;strokeColor=#82b366;" vertex="1" parent="1">
          <mxGeometry y="40" width="840" height="870" as="geometry" />
        </mxCell>
        <mxCell id="4qrja9e9CyFXk5qWjHwn-2" value="&lt;font style=&quot;color: rgb(255, 181, 112);&quot;&gt;Txns Model&lt;/font&gt;" style="swimlane;whiteSpace=wrap;html=1;fillColor=#e1d5e7;strokeColor=#9673a6;fontColor=#333333;sketch=1;curveFitting=1;jiggle=2;strokeWidth=1;" vertex="1" parent="4qrja9e9CyFXk5qWjHwn-1">
          <mxGeometry x="605" y="50" width="220" height="380" as="geometry" />
        </mxCell>
        <mxCell id="4qrja9e9CyFXk5qWjHwn-6" value="&lt;font style=&quot;color: rgb(255, 217, 102);&quot;&gt;Abstract Handler&lt;/font&gt;" style="shape=table;startSize=30;container=1;collapsible=1;childLayout=tableLayout;fixedRows=1;rowLines=0;fontStyle=1;align=center;resizeLast=1;html=1;fillColor=#f5f5f5;strokeColor=#666666;sketch=1;curveFitting=1;jiggle=2;strokeWidth=1;fontColor=#333333;" vertex="1" parent="4qrja9e9CyFXk5qWjHwn-2">
          <mxGeometry x="20" y="40" width="180" height="150" as="geometry" />
        </mxCell>
        <mxCell id="4qrja9e9CyFXk5qWjHwn-20" value="" style="shape=tableRow;horizontal=0;startSize=0;swimlaneHead=0;swimlaneBody=0;fillColor=none;collapsible=0;dropTarget=0;points=[[0,0.5],[1,0.5]];portConstraint=eastwest;top=0;left=0;right=0;bottom=0;" vertex="1" parent="4qrja9e9CyFXk5qWjHwn-6">
          <mxGeometry y="30" width="180" height="30" as="geometry" />
        </mxCell>
        <mxCell id="4qrja9e9CyFXk5qWjHwn-21" value="&lt;b&gt;*&lt;/b&gt;" style="shape=partialRectangle;connectable=0;fillColor=none;top=0;left=0;bottom=0;right=0;fontStyle=0;overflow=hidden;whiteSpace=wrap;html=1;" vertex="1" parent="4qrja9e9CyFXk5qWjHwn-20">
          <mxGeometry width="30" height="30" as="geometry">
            <mxRectangle width="30" height="30" as="alternateBounds" />
          </mxGeometry>
        </mxCell>
        <mxCell id="4qrja9e9CyFXk5qWjHwn-22" value="&lt;u&gt;&lt;b&gt;service[S]&lt;/b&gt;&lt;/u&gt;" style="shape=partialRectangle;connectable=0;fillColor=none;top=0;left=0;bottom=0;right=0;align=left;spacingLeft=6;fontStyle=0;overflow=hidden;whiteSpace=wrap;html=1;" vertex="1" parent="4qrja9e9CyFXk5qWjHwn-20">
          <mxGeometry x="30" width="150" height="30" as="geometry">
            <mxRectangle width="150" height="30" as="alternateBounds" />
          </mxGeometry>
        </mxCell>
        <mxCell id="4qrja9e9CyFXk5qWjHwn-7" value="" style="shape=tableRow;horizontal=0;startSize=0;swimlaneHead=0;swimlaneBody=0;fillColor=none;collapsible=0;dropTarget=0;points=[[0,0.5],[1,0.5]];portConstraint=eastwest;top=0;left=0;right=0;bottom=1;" vertex="1" parent="4qrja9e9CyFXk5qWjHwn-6">
          <mxGeometry y="60" width="180" height="30" as="geometry" />
        </mxCell>
        <mxCell id="4qrja9e9CyFXk5qWjHwn-8" value="*" style="shape=partialRectangle;connectable=0;fillColor=none;top=0;left=0;bottom=0;right=0;fontStyle=1;overflow=hidden;whiteSpace=wrap;html=1;" vertex="1" parent="4qrja9e9CyFXk5qWjHwn-7">
          <mxGeometry width="30" height="30" as="geometry">
            <mxRectangle width="30" height="30" as="alternateBounds" />
          </mxGeometry>
        </mxCell>
        <mxCell id="4qrja9e9CyFXk5qWjHwn-9" value="error_handler" style="shape=partialRectangle;connectable=0;fillColor=none;top=0;left=0;bottom=0;right=0;align=left;spacingLeft=6;fontStyle=5;overflow=hidden;whiteSpace=wrap;html=1;" vertex="1" parent="4qrja9e9CyFXk5qWjHwn-7">
          <mxGeometry x="30" width="150" height="30" as="geometry">
            <mxRectangle width="150" height="30" as="alternateBounds" />
          </mxGeometry>
        </mxCell>
        <mxCell id="4qrja9e9CyFXk5qWjHwn-10" value="" style="shape=tableRow;horizontal=0;startSize=0;swimlaneHead=0;swimlaneBody=0;fillColor=none;collapsible=0;dropTarget=0;points=[[0,0.5],[1,0.5]];portConstraint=eastwest;top=0;left=0;right=0;bottom=0;" vertex="1" parent="4qrja9e9CyFXk5qWjHwn-6">
          <mxGeometry y="90" width="180" height="30" as="geometry" />
        </mxCell>
        <mxCell id="4qrja9e9CyFXk5qWjHwn-11" value="*" style="shape=partialRectangle;connectable=0;fillColor=none;top=0;left=0;bottom=0;right=0;editable=1;overflow=hidden;whiteSpace=wrap;html=1;" vertex="1" parent="4qrja9e9CyFXk5qWjHwn-10">
          <mxGeometry width="30" height="30" as="geometry">
            <mxRectangle width="30" height="30" as="alternateBounds" />
          </mxGeometry>
        </mxCell>
        <mxCell id="4qrja9e9CyFXk5qWjHwn-12" value="setup_service(Service[S])" style="shape=partialRectangle;connectable=0;fillColor=none;top=0;left=0;bottom=0;right=0;align=left;spacingLeft=6;overflow=hidden;whiteSpace=wrap;html=1;" vertex="1" parent="4qrja9e9CyFXk5qWjHwn-10">
          <mxGeometry x="30" width="150" height="30" as="geometry">
            <mxRectangle width="150" height="30" as="alternateBounds" />
          </mxGeometry>
        </mxCell>
        <mxCell id="4qrja9e9CyFXk5qWjHwn-13" value="" style="shape=tableRow;horizontal=0;startSize=0;swimlaneHead=0;swimlaneBody=0;fillColor=none;collapsible=0;dropTarget=0;points=[[0,0.5],[1,0.5]];portConstraint=eastwest;top=0;left=0;right=0;bottom=0;" vertex="1" parent="4qrja9e9CyFXk5qWjHwn-6">
          <mxGeometry y="120" width="180" height="30" as="geometry" />
        </mxCell>
        <mxCell id="4qrja9e9CyFXk5qWjHwn-14" value="*" style="shape=partialRectangle;connectable=0;fillColor=none;top=0;left=0;bottom=0;right=0;editable=1;overflow=hidden;whiteSpace=wrap;html=1;" vertex="1" parent="4qrja9e9CyFXk5qWjHwn-13">
          <mxGeometry width="30" height="30" as="geometry">
            <mxRectangle width="30" height="30" as="alternateBounds" />
          </mxGeometry>
        </mxCell>
        <mxCell id="4qrja9e9CyFXk5qWjHwn-15" value="checked_service()" style="shape=partialRectangle;connectable=0;fillColor=none;top=0;left=0;bottom=0;right=0;align=left;spacingLeft=6;overflow=hidden;whiteSpace=wrap;html=1;" vertex="1" parent="4qrja9e9CyFXk5qWjHwn-13">
          <mxGeometry x="30" width="150" height="30" as="geometry">
            <mxRectangle width="150" height="30" as="alternateBounds" />
          </mxGeometry>
        </mxCell>
        <mxCell id="4qrja9e9CyFXk5qWjHwn-62" value="&lt;font style=&quot;color: rgb(255, 217, 102);&quot;&gt;BaseService&lt;/font&gt;" style="shape=table;startSize=30;container=1;collapsible=1;childLayout=tableLayout;fixedRows=1;rowLines=0;fontStyle=1;align=center;resizeLast=1;html=1;fillColor=#dae8fc;strokeColor=#6c8ebf;sketch=1;curveFitting=1;jiggle=2;strokeWidth=1;" vertex="1" parent="4qrja9e9CyFXk5qWjHwn-2">
          <mxGeometry x="20" y="270" width="180" height="90" as="geometry" />
        </mxCell>
        <mxCell id="4qrja9e9CyFXk5qWjHwn-66" value="" style="shape=tableRow;horizontal=0;startSize=0;swimlaneHead=0;swimlaneBody=0;fillColor=none;collapsible=0;dropTarget=0;points=[[0,0.5],[1,0.5]];portConstraint=eastwest;top=0;left=0;right=0;bottom=1;" vertex="1" parent="4qrja9e9CyFXk5qWjHwn-62">
          <mxGeometry y="30" width="180" height="30" as="geometry" />
        </mxCell>
        <mxCell id="4qrja9e9CyFXk5qWjHwn-67" value="*" style="shape=partialRectangle;connectable=0;fillColor=none;top=0;left=0;bottom=0;right=0;fontStyle=1;overflow=hidden;whiteSpace=wrap;html=1;" vertex="1" parent="4qrja9e9CyFXk5qWjHwn-66">
          <mxGeometry width="30" height="30" as="geometry">
            <mxRectangle width="30" height="30" as="alternateBounds" />
          </mxGeometry>
        </mxCell>
        <mxCell id="4qrja9e9CyFXk5qWjHwn-68" value="..." style="shape=partialRectangle;connectable=0;fillColor=none;top=0;left=0;bottom=0;right=0;align=left;spacingLeft=6;fontStyle=5;overflow=hidden;whiteSpace=wrap;html=1;" vertex="1" parent="4qrja9e9CyFXk5qWjHwn-66">
          <mxGeometry x="30" width="150" height="30" as="geometry">
            <mxRectangle width="150" height="30" as="alternateBounds" />
          </mxGeometry>
        </mxCell>
        <mxCell id="4qrja9e9CyFXk5qWjHwn-69" value="" style="shape=tableRow;horizontal=0;startSize=0;swimlaneHead=0;swimlaneBody=0;fillColor=none;collapsible=0;dropTarget=0;points=[[0,0.5],[1,0.5]];portConstraint=eastwest;top=0;left=0;right=0;bottom=0;" vertex="1" parent="4qrja9e9CyFXk5qWjHwn-62">
          <mxGeometry y="60" width="180" height="30" as="geometry" />
        </mxCell>
        <mxCell id="4qrja9e9CyFXk5qWjHwn-70" value="*" style="shape=partialRectangle;connectable=0;fillColor=none;top=0;left=0;bottom=0;right=0;editable=1;overflow=hidden;whiteSpace=wrap;html=1;" vertex="1" parent="4qrja9e9CyFXk5qWjHwn-69">
          <mxGeometry width="30" height="30" as="geometry">
            <mxRectangle width="30" height="30" as="alternateBounds" />
          </mxGeometry>
        </mxCell>
        <mxCell id="4qrja9e9CyFXk5qWjHwn-71" value="...(...)" style="shape=partialRectangle;connectable=0;fillColor=none;top=0;left=0;bottom=0;right=0;align=left;spacingLeft=6;overflow=hidden;whiteSpace=wrap;html=1;" vertex="1" parent="4qrja9e9CyFXk5qWjHwn-69">
          <mxGeometry x="30" width="150" height="30" as="geometry">
            <mxRectangle width="150" height="30" as="alternateBounds" />
          </mxGeometry>
        </mxCell>
        <mxCell id="4qrja9e9CyFXk5qWjHwn-78" style="edgeStyle=orthogonalEdgeStyle;rounded=0;orthogonalLoop=1;jettySize=auto;html=1;entryX=0.5;entryY=0;entryDx=0;entryDy=0;startArrow=diamondThin;startFill=1;endArrow=none;endFill=0;dashed=1;strokeWidth=2;fillColor=#f5f5f5;strokeColor=#666666;sketch=1;curveFitting=1;jiggle=2;curved=1;" edge="1" parent="4qrja9e9CyFXk5qWjHwn-2" source="4qrja9e9CyFXk5qWjHwn-6" target="4qrja9e9CyFXk5qWjHwn-62">
          <mxGeometry relative="1" as="geometry" />
        </mxCell>
        <mxCell id="4qrja9e9CyFXk5qWjHwn-23" value="&lt;font style=&quot;color: rgb(255, 181, 112);&quot;&gt;handlers&lt;/font&gt;" style="swimlane;whiteSpace=wrap;html=1;fillColor=#d5e8d4;strokeColor=#82b366;sketch=1;jiggle=2;curveFitting=1;align=center;verticalAlign=middle;fontFamily=Helvetica;fontSize=12;fontColor=default;fontStyle=1;" vertex="1" parent="4qrja9e9CyFXk5qWjHwn-1">
          <mxGeometry x="315" y="50" width="210" height="360" as="geometry" />
        </mxCell>
        <mxCell id="4qrja9e9CyFXk5qWjHwn-24" value="&lt;font style=&quot;color: rgb(255, 217, 102);&quot;&gt;LoadHandler[T, L]&lt;/font&gt;" style="shape=table;startSize=30;container=1;collapsible=1;childLayout=tableLayout;fixedRows=1;rowLines=0;fontStyle=1;align=center;resizeLast=1;html=1;fillColor=#f5f5f5;strokeColor=#666666;sketch=1;curveFitting=1;jiggle=2;strokeWidth=1;fontColor=#333333;" vertex="1" parent="4qrja9e9CyFXk5qWjHwn-23">
          <mxGeometry x="15" y="40" width="180" height="300" as="geometry" />
        </mxCell>
        <mxCell id="4qrja9e9CyFXk5qWjHwn-25" value="" style="shape=tableRow;horizontal=0;startSize=0;swimlaneHead=0;swimlaneBody=0;fillColor=none;collapsible=0;dropTarget=0;points=[[0,0.5],[1,0.5]];portConstraint=eastwest;top=0;left=0;right=0;bottom=0;" vertex="1" parent="4qrja9e9CyFXk5qWjHwn-24">
          <mxGeometry y="30" width="180" height="30" as="geometry" />
        </mxCell>
        <mxCell id="4qrja9e9CyFXk5qWjHwn-26" value="&lt;b&gt;*&lt;/b&gt;" style="shape=partialRectangle;connectable=0;fillColor=none;top=0;left=0;bottom=0;right=0;fontStyle=0;overflow=hidden;whiteSpace=wrap;html=1;" vertex="1" parent="4qrja9e9CyFXk5qWjHwn-25">
          <mxGeometry width="30" height="30" as="geometry">
            <mxRectangle width="30" height="30" as="alternateBounds" />
          </mxGeometry>
        </mxCell>
        <mxCell id="4qrja9e9CyFXk5qWjHwn-27" value="&lt;u&gt;&lt;b&gt;loader[L]&lt;/b&gt;&lt;/u&gt;" style="shape=partialRectangle;connectable=0;fillColor=none;top=0;left=0;bottom=0;right=0;align=left;spacingLeft=6;fontStyle=0;overflow=hidden;whiteSpace=wrap;html=1;" vertex="1" parent="4qrja9e9CyFXk5qWjHwn-25">
          <mxGeometry x="30" width="150" height="30" as="geometry">
            <mxRectangle width="150" height="30" as="alternateBounds" />
          </mxGeometry>
        </mxCell>
        <mxCell id="4qrja9e9CyFXk5qWjHwn-52" value="" style="shape=tableRow;horizontal=0;startSize=0;swimlaneHead=0;swimlaneBody=0;fillColor=none;collapsible=0;dropTarget=0;points=[[0,0.5],[1,0.5]];portConstraint=eastwest;top=0;left=0;right=0;bottom=0;" vertex="1" parent="4qrja9e9CyFXk5qWjHwn-24">
          <mxGeometry y="60" width="180" height="30" as="geometry" />
        </mxCell>
        <mxCell id="4qrja9e9CyFXk5qWjHwn-53" value="&lt;b&gt;*&lt;/b&gt;" style="shape=partialRectangle;connectable=0;fillColor=none;top=0;left=0;bottom=0;right=0;fontStyle=0;overflow=hidden;whiteSpace=wrap;html=1;" vertex="1" parent="4qrja9e9CyFXk5qWjHwn-52">
          <mxGeometry width="30" height="30" as="geometry">
            <mxRectangle width="30" height="30" as="alternateBounds" />
          </mxGeometry>
        </mxCell>
        <mxCell id="4qrja9e9CyFXk5qWjHwn-54" value="&lt;u&gt;&lt;b&gt;service[T]&lt;/b&gt;&lt;/u&gt;" style="shape=partialRectangle;connectable=0;fillColor=none;top=0;left=0;bottom=0;right=0;align=left;spacingLeft=6;fontStyle=0;overflow=hidden;whiteSpace=wrap;html=1;" vertex="1" parent="4qrja9e9CyFXk5qWjHwn-52">
          <mxGeometry x="30" width="150" height="30" as="geometry">
            <mxRectangle width="150" height="30" as="alternateBounds" />
          </mxGeometry>
        </mxCell>
        <mxCell id="4qrja9e9CyFXk5qWjHwn-28" value="" style="shape=tableRow;horizontal=0;startSize=0;swimlaneHead=0;swimlaneBody=0;fillColor=none;collapsible=0;dropTarget=0;points=[[0,0.5],[1,0.5]];portConstraint=eastwest;top=0;left=0;right=0;bottom=1;" vertex="1" parent="4qrja9e9CyFXk5qWjHwn-24">
          <mxGeometry y="90" width="180" height="30" as="geometry" />
        </mxCell>
        <mxCell id="4qrja9e9CyFXk5qWjHwn-29" value="*" style="shape=partialRectangle;connectable=0;fillColor=none;top=0;left=0;bottom=0;right=0;fontStyle=1;overflow=hidden;whiteSpace=wrap;html=1;" vertex="1" parent="4qrja9e9CyFXk5qWjHwn-28">
          <mxGeometry width="30" height="30" as="geometry">
            <mxRectangle width="30" height="30" as="alternateBounds" />
          </mxGeometry>
        </mxCell>
        <mxCell id="4qrja9e9CyFXk5qWjHwn-30" value="error_handler" style="shape=partialRectangle;connectable=0;fillColor=none;top=0;left=0;bottom=0;right=0;align=left;spacingLeft=6;fontStyle=5;overflow=hidden;whiteSpace=wrap;html=1;" vertex="1" parent="4qrja9e9CyFXk5qWjHwn-28">
          <mxGeometry x="30" width="150" height="30" as="geometry">
            <mxRectangle width="150" height="30" as="alternateBounds" />
          </mxGeometry>
        </mxCell>
        <mxCell id="4qrja9e9CyFXk5qWjHwn-31" value="" style="shape=tableRow;horizontal=0;startSize=0;swimlaneHead=0;swimlaneBody=0;fillColor=none;collapsible=0;dropTarget=0;points=[[0,0.5],[1,0.5]];portConstraint=eastwest;top=0;left=0;right=0;bottom=0;" vertex="1" parent="4qrja9e9CyFXk5qWjHwn-24">
          <mxGeometry y="120" width="180" height="30" as="geometry" />
        </mxCell>
        <mxCell id="4qrja9e9CyFXk5qWjHwn-32" value="*" style="shape=partialRectangle;connectable=0;fillColor=none;top=0;left=0;bottom=0;right=0;editable=1;overflow=hidden;whiteSpace=wrap;html=1;" vertex="1" parent="4qrja9e9CyFXk5qWjHwn-31">
          <mxGeometry width="30" height="30" as="geometry">
            <mxRectangle width="30" height="30" as="alternateBounds" />
          </mxGeometry>
        </mxCell>
        <mxCell id="4qrja9e9CyFXk5qWjHwn-33" value="setup_service(Service[S])" style="shape=partialRectangle;connectable=0;fillColor=none;top=0;left=0;bottom=0;right=0;align=left;spacingLeft=6;overflow=hidden;whiteSpace=wrap;html=1;" vertex="1" parent="4qrja9e9CyFXk5qWjHwn-31">
          <mxGeometry x="30" width="150" height="30" as="geometry">
            <mxRectangle width="150" height="30" as="alternateBounds" />
          </mxGeometry>
        </mxCell>
        <mxCell id="4qrja9e9CyFXk5qWjHwn-58" value="" style="shape=tableRow;horizontal=0;startSize=0;swimlaneHead=0;swimlaneBody=0;fillColor=none;collapsible=0;dropTarget=0;points=[[0,0.5],[1,0.5]];portConstraint=eastwest;top=0;left=0;right=0;bottom=0;" vertex="1" parent="4qrja9e9CyFXk5qWjHwn-24">
          <mxGeometry y="150" width="180" height="30" as="geometry" />
        </mxCell>
        <mxCell id="4qrja9e9CyFXk5qWjHwn-59" value="*" style="shape=partialRectangle;connectable=0;fillColor=none;top=0;left=0;bottom=0;right=0;editable=1;overflow=hidden;whiteSpace=wrap;html=1;" vertex="1" parent="4qrja9e9CyFXk5qWjHwn-58">
          <mxGeometry width="30" height="30" as="geometry">
            <mxRectangle width="30" height="30" as="alternateBounds" />
          </mxGeometry>
        </mxCell>
        <mxCell id="4qrja9e9CyFXk5qWjHwn-60" value="setup_loader(Loader[L])" style="shape=partialRectangle;connectable=0;fillColor=none;top=0;left=0;bottom=0;right=0;align=left;spacingLeft=6;overflow=hidden;whiteSpace=wrap;html=1;" vertex="1" parent="4qrja9e9CyFXk5qWjHwn-58">
          <mxGeometry x="30" width="150" height="30" as="geometry">
            <mxRectangle width="150" height="30" as="alternateBounds" />
          </mxGeometry>
        </mxCell>
        <mxCell id="4qrja9e9CyFXk5qWjHwn-34" value="" style="shape=tableRow;horizontal=0;startSize=0;swimlaneHead=0;swimlaneBody=0;fillColor=none;collapsible=0;dropTarget=0;points=[[0,0.5],[1,0.5]];portConstraint=eastwest;top=0;left=0;right=0;bottom=0;" vertex="1" parent="4qrja9e9CyFXk5qWjHwn-24">
          <mxGeometry y="180" width="180" height="30" as="geometry" />
        </mxCell>
        <mxCell id="4qrja9e9CyFXk5qWjHwn-35" value="*" style="shape=partialRectangle;connectable=0;fillColor=none;top=0;left=0;bottom=0;right=0;editable=1;overflow=hidden;whiteSpace=wrap;html=1;" vertex="1" parent="4qrja9e9CyFXk5qWjHwn-34">
          <mxGeometry width="30" height="30" as="geometry">
            <mxRectangle width="30" height="30" as="alternateBounds" />
          </mxGeometry>
        </mxCell>
        <mxCell id="4qrja9e9CyFXk5qWjHwn-36" value="checked_service()" style="shape=partialRectangle;connectable=0;fillColor=none;top=0;left=0;bottom=0;right=0;align=left;spacingLeft=6;overflow=hidden;whiteSpace=wrap;html=1;" vertex="1" parent="4qrja9e9CyFXk5qWjHwn-34">
          <mxGeometry x="30" width="150" height="30" as="geometry">
            <mxRectangle width="150" height="30" as="alternateBounds" />
          </mxGeometry>
        </mxCell>
        <mxCell id="4qrja9e9CyFXk5qWjHwn-55" value="" style="shape=tableRow;horizontal=0;startSize=0;swimlaneHead=0;swimlaneBody=0;fillColor=none;collapsible=0;dropTarget=0;points=[[0,0.5],[1,0.5]];portConstraint=eastwest;top=0;left=0;right=0;bottom=0;" vertex="1" parent="4qrja9e9CyFXk5qWjHwn-24">
          <mxGeometry y="210" width="180" height="30" as="geometry" />
        </mxCell>
        <mxCell id="4qrja9e9CyFXk5qWjHwn-56" value="*" style="shape=partialRectangle;connectable=0;fillColor=none;top=0;left=0;bottom=0;right=0;editable=1;overflow=hidden;whiteSpace=wrap;html=1;" vertex="1" parent="4qrja9e9CyFXk5qWjHwn-55">
          <mxGeometry width="30" height="30" as="geometry">
            <mxRectangle width="30" height="30" as="alternateBounds" />
          </mxGeometry>
        </mxCell>
        <mxCell id="4qrja9e9CyFXk5qWjHwn-57" value="load()" style="shape=partialRectangle;connectable=0;fillColor=none;top=0;left=0;bottom=0;right=0;align=left;spacingLeft=6;overflow=hidden;whiteSpace=wrap;html=1;" vertex="1" parent="4qrja9e9CyFXk5qWjHwn-55">
          <mxGeometry x="30" width="150" height="30" as="geometry">
            <mxRectangle width="150" height="30" as="alternateBounds" />
          </mxGeometry>
        </mxCell>
        <mxCell id="4qrja9e9CyFXk5qWjHwn-134" value="" style="shape=tableRow;horizontal=0;startSize=0;swimlaneHead=0;swimlaneBody=0;fillColor=none;collapsible=0;dropTarget=0;points=[[0,0.5],[1,0.5]];portConstraint=eastwest;top=0;left=0;right=0;bottom=0;" vertex="1" parent="4qrja9e9CyFXk5qWjHwn-24">
          <mxGeometry y="240" width="180" height="30" as="geometry" />
        </mxCell>
        <mxCell id="4qrja9e9CyFXk5qWjHwn-135" value="*" style="shape=partialRectangle;connectable=0;fillColor=none;top=0;left=0;bottom=0;right=0;editable=1;overflow=hidden;whiteSpace=wrap;html=1;" vertex="1" parent="4qrja9e9CyFXk5qWjHwn-134">
          <mxGeometry width="30" height="30" as="geometry">
            <mxRectangle width="30" height="30" as="alternateBounds" />
          </mxGeometry>
        </mxCell>
        <mxCell id="4qrja9e9CyFXk5qWjHwn-136" value="dump()" style="shape=partialRectangle;connectable=0;fillColor=none;top=0;left=0;bottom=0;right=0;align=left;spacingLeft=6;overflow=hidden;whiteSpace=wrap;html=1;" vertex="1" parent="4qrja9e9CyFXk5qWjHwn-134">
          <mxGeometry x="30" width="150" height="30" as="geometry">
            <mxRectangle width="150" height="30" as="alternateBounds" />
          </mxGeometry>
        </mxCell>
        <mxCell id="4qrja9e9CyFXk5qWjHwn-137" value="" style="shape=tableRow;horizontal=0;startSize=0;swimlaneHead=0;swimlaneBody=0;fillColor=none;collapsible=0;dropTarget=0;points=[[0,0.5],[1,0.5]];portConstraint=eastwest;top=0;left=0;right=0;bottom=0;" vertex="1" parent="4qrja9e9CyFXk5qWjHwn-24">
          <mxGeometry y="270" width="180" height="30" as="geometry" />
        </mxCell>
        <mxCell id="4qrja9e9CyFXk5qWjHwn-138" value="*" style="shape=partialRectangle;connectable=0;fillColor=none;top=0;left=0;bottom=0;right=0;editable=1;overflow=hidden;whiteSpace=wrap;html=1;" vertex="1" parent="4qrja9e9CyFXk5qWjHwn-137">
          <mxGeometry width="30" height="30" as="geometry">
            <mxRectangle width="30" height="30" as="alternateBounds" />
          </mxGeometry>
        </mxCell>
        <mxCell id="4qrja9e9CyFXk5qWjHwn-139" value="check_data()" style="shape=partialRectangle;connectable=0;fillColor=none;top=0;left=0;bottom=0;right=0;align=left;spacingLeft=6;overflow=hidden;whiteSpace=wrap;html=1;" vertex="1" parent="4qrja9e9CyFXk5qWjHwn-137">
          <mxGeometry x="30" width="150" height="30" as="geometry">
            <mxRectangle width="150" height="30" as="alternateBounds" />
          </mxGeometry>
        </mxCell>
        <mxCell id="4qrja9e9CyFXk5qWjHwn-101" value="&lt;font style=&quot;color: rgb(255, 181, 112);&quot;&gt;loaders&lt;/font&gt;" style="swimlane;whiteSpace=wrap;html=1;fillColor=#d5e8d4;strokeColor=#82b366;sketch=1;jiggle=2;curveFitting=1;align=center;verticalAlign=middle;fontFamily=Helvetica;fontSize=12;fontColor=default;fontStyle=1;" vertex="1" parent="4qrja9e9CyFXk5qWjHwn-1">
          <mxGeometry x="25" y="50" width="210" height="580" as="geometry" />
        </mxCell>
        <mxCell id="4qrja9e9CyFXk5qWjHwn-152" style="edgeStyle=orthogonalEdgeStyle;rounded=0;orthogonalLoop=1;jettySize=auto;html=1;entryX=0.5;entryY=0;entryDx=0;entryDy=0;endArrow=diamondThin;endFill=1;strokeWidth=2;fillColor=#dae8fc;strokeColor=#6c8ebf;curved=1;sketch=1;curveFitting=1;jiggle=2;" edge="1" parent="4qrja9e9CyFXk5qWjHwn-101" source="4qrja9e9CyFXk5qWjHwn-125" target="4qrja9e9CyFXk5qWjHwn-140">
          <mxGeometry relative="1" as="geometry" />
        </mxCell>
        <mxCell id="4qrja9e9CyFXk5qWjHwn-125" value="&lt;font color=&quot;#ffd966&quot;&gt;Abstract Loader&lt;/font&gt;" style="shape=table;startSize=30;container=1;collapsible=1;childLayout=tableLayout;fixedRows=1;rowLines=0;fontStyle=1;align=center;resizeLast=1;html=1;fillColor=#f5f5f5;strokeColor=#666666;sketch=1;curveFitting=1;jiggle=2;strokeWidth=1;fontColor=#333333;" vertex="1" parent="4qrja9e9CyFXk5qWjHwn-101">
          <mxGeometry x="15" y="40" width="180" height="120" as="geometry" />
        </mxCell>
        <mxCell id="4qrja9e9CyFXk5qWjHwn-126" value="" style="shape=tableRow;horizontal=0;startSize=0;swimlaneHead=0;swimlaneBody=0;fillColor=none;collapsible=0;dropTarget=0;points=[[0,0.5],[1,0.5]];portConstraint=eastwest;top=0;left=0;right=0;bottom=1;" vertex="1" parent="4qrja9e9CyFXk5qWjHwn-125">
          <mxGeometry y="30" width="180" height="30" as="geometry" />
        </mxCell>
        <mxCell id="4qrja9e9CyFXk5qWjHwn-127" value="*" style="shape=partialRectangle;connectable=0;fillColor=none;top=0;left=0;bottom=0;right=0;fontStyle=1;overflow=hidden;whiteSpace=wrap;html=1;" vertex="1" parent="4qrja9e9CyFXk5qWjHwn-126">
          <mxGeometry width="30" height="30" as="geometry">
            <mxRectangle width="30" height="30" as="alternateBounds" />
          </mxGeometry>
        </mxCell>
        <mxCell id="4qrja9e9CyFXk5qWjHwn-128" value="error_handler" style="shape=partialRectangle;connectable=0;fillColor=none;top=0;left=0;bottom=0;right=0;align=left;spacingLeft=6;fontStyle=5;overflow=hidden;whiteSpace=wrap;html=1;" vertex="1" parent="4qrja9e9CyFXk5qWjHwn-126">
          <mxGeometry x="30" width="150" height="30" as="geometry">
            <mxRectangle width="150" height="30" as="alternateBounds" />
          </mxGeometry>
        </mxCell>
        <mxCell id="4qrja9e9CyFXk5qWjHwn-129" value="" style="shape=tableRow;horizontal=0;startSize=0;swimlaneHead=0;swimlaneBody=0;fillColor=none;collapsible=0;dropTarget=0;points=[[0,0.5],[1,0.5]];portConstraint=eastwest;top=0;left=0;right=0;bottom=0;" vertex="1" parent="4qrja9e9CyFXk5qWjHwn-125">
          <mxGeometry y="60" width="180" height="30" as="geometry" />
        </mxCell>
        <mxCell id="4qrja9e9CyFXk5qWjHwn-130" value="*" style="shape=partialRectangle;connectable=0;fillColor=none;top=0;left=0;bottom=0;right=0;editable=1;overflow=hidden;whiteSpace=wrap;html=1;" vertex="1" parent="4qrja9e9CyFXk5qWjHwn-129">
          <mxGeometry width="30" height="30" as="geometry">
            <mxRectangle width="30" height="30" as="alternateBounds" />
          </mxGeometry>
        </mxCell>
        <mxCell id="4qrja9e9CyFXk5qWjHwn-131" value="load()" style="shape=partialRectangle;connectable=0;fillColor=none;top=0;left=0;bottom=0;right=0;align=left;spacingLeft=6;overflow=hidden;whiteSpace=wrap;html=1;" vertex="1" parent="4qrja9e9CyFXk5qWjHwn-129">
          <mxGeometry x="30" width="150" height="30" as="geometry">
            <mxRectangle width="150" height="30" as="alternateBounds" />
          </mxGeometry>
        </mxCell>
        <mxCell id="4qrja9e9CyFXk5qWjHwn-156" value="" style="shape=tableRow;horizontal=0;startSize=0;swimlaneHead=0;swimlaneBody=0;fillColor=none;collapsible=0;dropTarget=0;points=[[0,0.5],[1,0.5]];portConstraint=eastwest;top=0;left=0;right=0;bottom=0;" vertex="1" parent="4qrja9e9CyFXk5qWjHwn-125">
          <mxGeometry y="90" width="180" height="30" as="geometry" />
        </mxCell>
        <mxCell id="4qrja9e9CyFXk5qWjHwn-157" value="*" style="shape=partialRectangle;connectable=0;fillColor=none;top=0;left=0;bottom=0;right=0;editable=1;overflow=hidden;whiteSpace=wrap;html=1;" vertex="1" parent="4qrja9e9CyFXk5qWjHwn-156">
          <mxGeometry width="30" height="30" as="geometry">
            <mxRectangle width="30" height="30" as="alternateBounds" />
          </mxGeometry>
        </mxCell>
        <mxCell id="4qrja9e9CyFXk5qWjHwn-158" value="check_file()" style="shape=partialRectangle;connectable=0;fillColor=none;top=0;left=0;bottom=0;right=0;align=left;spacingLeft=6;overflow=hidden;whiteSpace=wrap;html=1;" vertex="1" parent="4qrja9e9CyFXk5qWjHwn-156">
          <mxGeometry x="30" width="150" height="30" as="geometry">
            <mxRectangle width="150" height="30" as="alternateBounds" />
          </mxGeometry>
        </mxCell>
        <mxCell id="4qrja9e9CyFXk5qWjHwn-140" value="&lt;font color=&quot;#ffd966&quot;&gt;FileLoader&lt;/font&gt;" style="shape=table;startSize=30;container=1;collapsible=1;childLayout=tableLayout;fixedRows=1;rowLines=0;fontStyle=1;align=center;resizeLast=1;html=1;fillColor=#dae8fc;strokeColor=#6c8ebf;sketch=1;curveFitting=1;jiggle=2;strokeWidth=1;" vertex="1" parent="4qrja9e9CyFXk5qWjHwn-101">
          <mxGeometry x="15" y="240" width="180" height="120" as="geometry" />
        </mxCell>
        <mxCell id="4qrja9e9CyFXk5qWjHwn-141" value="" style="shape=tableRow;horizontal=0;startSize=0;swimlaneHead=0;swimlaneBody=0;fillColor=none;collapsible=0;dropTarget=0;points=[[0,0.5],[1,0.5]];portConstraint=eastwest;top=0;left=0;right=0;bottom=1;" vertex="1" parent="4qrja9e9CyFXk5qWjHwn-140">
          <mxGeometry y="30" width="180" height="30" as="geometry" />
        </mxCell>
        <mxCell id="4qrja9e9CyFXk5qWjHwn-142" value="*" style="shape=partialRectangle;connectable=0;fillColor=none;top=0;left=0;bottom=0;right=0;fontStyle=1;overflow=hidden;whiteSpace=wrap;html=1;" vertex="1" parent="4qrja9e9CyFXk5qWjHwn-141">
          <mxGeometry width="30" height="30" as="geometry">
            <mxRectangle width="30" height="30" as="alternateBounds" />
          </mxGeometry>
        </mxCell>
        <mxCell id="4qrja9e9CyFXk5qWjHwn-143" value="error_handler" style="shape=partialRectangle;connectable=0;fillColor=none;top=0;left=0;bottom=0;right=0;align=left;spacingLeft=6;fontStyle=5;overflow=hidden;whiteSpace=wrap;html=1;" vertex="1" parent="4qrja9e9CyFXk5qWjHwn-141">
          <mxGeometry x="30" width="150" height="30" as="geometry">
            <mxRectangle width="150" height="30" as="alternateBounds" />
          </mxGeometry>
        </mxCell>
        <mxCell id="4qrja9e9CyFXk5qWjHwn-144" value="" style="shape=tableRow;horizontal=0;startSize=0;swimlaneHead=0;swimlaneBody=0;fillColor=none;collapsible=0;dropTarget=0;points=[[0,0.5],[1,0.5]];portConstraint=eastwest;top=0;left=0;right=0;bottom=0;" vertex="1" parent="4qrja9e9CyFXk5qWjHwn-140">
          <mxGeometry y="60" width="180" height="30" as="geometry" />
        </mxCell>
        <mxCell id="4qrja9e9CyFXk5qWjHwn-145" value="*" style="shape=partialRectangle;connectable=0;fillColor=none;top=0;left=0;bottom=0;right=0;editable=1;overflow=hidden;whiteSpace=wrap;html=1;" vertex="1" parent="4qrja9e9CyFXk5qWjHwn-144">
          <mxGeometry width="30" height="30" as="geometry">
            <mxRectangle width="30" height="30" as="alternateBounds" />
          </mxGeometry>
        </mxCell>
        <mxCell id="4qrja9e9CyFXk5qWjHwn-146" value="load()" style="shape=partialRectangle;connectable=0;fillColor=none;top=0;left=0;bottom=0;right=0;align=left;spacingLeft=6;overflow=hidden;whiteSpace=wrap;html=1;" vertex="1" parent="4qrja9e9CyFXk5qWjHwn-144">
          <mxGeometry x="30" width="150" height="30" as="geometry">
            <mxRectangle width="150" height="30" as="alternateBounds" />
          </mxGeometry>
        </mxCell>
        <mxCell id="4qrja9e9CyFXk5qWjHwn-149" value="" style="shape=tableRow;horizontal=0;startSize=0;swimlaneHead=0;swimlaneBody=0;fillColor=none;collapsible=0;dropTarget=0;points=[[0,0.5],[1,0.5]];portConstraint=eastwest;top=0;left=0;right=0;bottom=0;" vertex="1" parent="4qrja9e9CyFXk5qWjHwn-140">
          <mxGeometry y="90" width="180" height="30" as="geometry" />
        </mxCell>
        <mxCell id="4qrja9e9CyFXk5qWjHwn-150" value="*" style="shape=partialRectangle;connectable=0;fillColor=none;top=0;left=0;bottom=0;right=0;editable=1;overflow=hidden;whiteSpace=wrap;html=1;" vertex="1" parent="4qrja9e9CyFXk5qWjHwn-149">
          <mxGeometry width="30" height="30" as="geometry">
            <mxRectangle width="30" height="30" as="alternateBounds" />
          </mxGeometry>
        </mxCell>
        <mxCell id="4qrja9e9CyFXk5qWjHwn-151" value="check_file()" style="shape=partialRectangle;connectable=0;fillColor=none;top=0;left=0;bottom=0;right=0;align=left;spacingLeft=6;overflow=hidden;whiteSpace=wrap;html=1;" vertex="1" parent="4qrja9e9CyFXk5qWjHwn-149">
          <mxGeometry x="30" width="150" height="30" as="geometry">
            <mxRectangle width="150" height="30" as="alternateBounds" />
          </mxGeometry>
        </mxCell>
        <mxCell id="4qrja9e9CyFXk5qWjHwn-159" style="edgeStyle=orthogonalEdgeStyle;rounded=0;orthogonalLoop=1;jettySize=auto;html=1;entryX=0.5;entryY=0;entryDx=0;entryDy=0;endArrow=diamondThin;endFill=1;strokeWidth=2;fillColor=#dae8fc;strokeColor=#6c8ebf;curved=1;sketch=1;curveFitting=1;jiggle=2;" edge="1" parent="4qrja9e9CyFXk5qWjHwn-101" target="4qrja9e9CyFXk5qWjHwn-160">
          <mxGeometry relative="1" as="geometry">
            <mxPoint x="105" y="360" as="sourcePoint" />
          </mxGeometry>
        </mxCell>
        <mxCell id="4qrja9e9CyFXk5qWjHwn-160" value="&lt;font color=&quot;#ffd966&quot;&gt;ExcelFileLoader&lt;/font&gt;" style="shape=table;startSize=30;container=1;collapsible=1;childLayout=tableLayout;fixedRows=1;rowLines=0;fontStyle=1;align=center;resizeLast=1;html=1;fillColor=#dae8fc;strokeColor=#6c8ebf;sketch=1;curveFitting=1;jiggle=2;strokeWidth=1;" vertex="1" parent="4qrja9e9CyFXk5qWjHwn-101">
          <mxGeometry x="15" y="440" width="180" height="120" as="geometry" />
        </mxCell>
        <mxCell id="4qrja9e9CyFXk5qWjHwn-161" value="" style="shape=tableRow;horizontal=0;startSize=0;swimlaneHead=0;swimlaneBody=0;fillColor=none;collapsible=0;dropTarget=0;points=[[0,0.5],[1,0.5]];portConstraint=eastwest;top=0;left=0;right=0;bottom=1;" vertex="1" parent="4qrja9e9CyFXk5qWjHwn-160">
          <mxGeometry y="30" width="180" height="30" as="geometry" />
        </mxCell>
        <mxCell id="4qrja9e9CyFXk5qWjHwn-162" value="*" style="shape=partialRectangle;connectable=0;fillColor=none;top=0;left=0;bottom=0;right=0;fontStyle=1;overflow=hidden;whiteSpace=wrap;html=1;" vertex="1" parent="4qrja9e9CyFXk5qWjHwn-161">
          <mxGeometry width="30" height="30" as="geometry">
            <mxRectangle width="30" height="30" as="alternateBounds" />
          </mxGeometry>
        </mxCell>
        <mxCell id="4qrja9e9CyFXk5qWjHwn-163" value="error_handler" style="shape=partialRectangle;connectable=0;fillColor=none;top=0;left=0;bottom=0;right=0;align=left;spacingLeft=6;fontStyle=5;overflow=hidden;whiteSpace=wrap;html=1;" vertex="1" parent="4qrja9e9CyFXk5qWjHwn-161">
          <mxGeometry x="30" width="150" height="30" as="geometry">
            <mxRectangle width="150" height="30" as="alternateBounds" />
          </mxGeometry>
        </mxCell>
        <mxCell id="4qrja9e9CyFXk5qWjHwn-164" value="" style="shape=tableRow;horizontal=0;startSize=0;swimlaneHead=0;swimlaneBody=0;fillColor=none;collapsible=0;dropTarget=0;points=[[0,0.5],[1,0.5]];portConstraint=eastwest;top=0;left=0;right=0;bottom=0;" vertex="1" parent="4qrja9e9CyFXk5qWjHwn-160">
          <mxGeometry y="60" width="180" height="30" as="geometry" />
        </mxCell>
        <mxCell id="4qrja9e9CyFXk5qWjHwn-165" value="*" style="shape=partialRectangle;connectable=0;fillColor=none;top=0;left=0;bottom=0;right=0;editable=1;overflow=hidden;whiteSpace=wrap;html=1;" vertex="1" parent="4qrja9e9CyFXk5qWjHwn-164">
          <mxGeometry width="30" height="30" as="geometry">
            <mxRectangle width="30" height="30" as="alternateBounds" />
          </mxGeometry>
        </mxCell>
        <mxCell id="4qrja9e9CyFXk5qWjHwn-166" value="load()" style="shape=partialRectangle;connectable=0;fillColor=none;top=0;left=0;bottom=0;right=0;align=left;spacingLeft=6;overflow=hidden;whiteSpace=wrap;html=1;" vertex="1" parent="4qrja9e9CyFXk5qWjHwn-164">
          <mxGeometry x="30" width="150" height="30" as="geometry">
            <mxRectangle width="150" height="30" as="alternateBounds" />
          </mxGeometry>
        </mxCell>
        <mxCell id="4qrja9e9CyFXk5qWjHwn-167" value="" style="shape=tableRow;horizontal=0;startSize=0;swimlaneHead=0;swimlaneBody=0;fillColor=none;collapsible=0;dropTarget=0;points=[[0,0.5],[1,0.5]];portConstraint=eastwest;top=0;left=0;right=0;bottom=0;" vertex="1" parent="4qrja9e9CyFXk5qWjHwn-160">
          <mxGeometry y="90" width="180" height="30" as="geometry" />
        </mxCell>
        <mxCell id="4qrja9e9CyFXk5qWjHwn-168" value="*" style="shape=partialRectangle;connectable=0;fillColor=none;top=0;left=0;bottom=0;right=0;editable=1;overflow=hidden;whiteSpace=wrap;html=1;" vertex="1" parent="4qrja9e9CyFXk5qWjHwn-167">
          <mxGeometry width="30" height="30" as="geometry">
            <mxRectangle width="30" height="30" as="alternateBounds" />
          </mxGeometry>
        </mxCell>
        <mxCell id="4qrja9e9CyFXk5qWjHwn-169" value="check_file()" style="shape=partialRectangle;connectable=0;fillColor=none;top=0;left=0;bottom=0;right=0;align=left;spacingLeft=6;overflow=hidden;whiteSpace=wrap;html=1;" vertex="1" parent="4qrja9e9CyFXk5qWjHwn-167">
          <mxGeometry x="30" width="150" height="30" as="geometry">
            <mxRectangle width="150" height="30" as="alternateBounds" />
          </mxGeometry>
        </mxCell>
        <mxCell id="4qrja9e9CyFXk5qWjHwn-147" style="edgeStyle=orthogonalEdgeStyle;rounded=0;orthogonalLoop=1;jettySize=auto;html=1;entryX=1;entryY=0.5;entryDx=0;entryDy=0;sketch=1;curveFitting=1;jiggle=2;curved=1;strokeWidth=2;dashed=1;fillColor=#f5f5f5;strokeColor=#666666;" edge="1" parent="4qrja9e9CyFXk5qWjHwn-1" source="4qrja9e9CyFXk5qWjHwn-7" target="4qrja9e9CyFXk5qWjHwn-31">
          <mxGeometry relative="1" as="geometry" />
        </mxCell>
        <mxCell id="4qrja9e9CyFXk5qWjHwn-148" style="edgeStyle=orthogonalEdgeStyle;rounded=0;orthogonalLoop=1;jettySize=auto;html=1;exitX=1;exitY=0.5;exitDx=0;exitDy=0;dashed=1;sketch=1;jiggle=2;curveFitting=1;strokeColor=#666666;strokeWidth=2;align=center;verticalAlign=middle;fontFamily=Helvetica;fontSize=11;fontColor=default;labelBackgroundColor=default;endArrow=classic;curved=1;fillColor=#f5f5f5;" edge="1" parent="4qrja9e9CyFXk5qWjHwn-1" source="4qrja9e9CyFXk5qWjHwn-126" target="4qrja9e9CyFXk5qWjHwn-31">
          <mxGeometry relative="1" as="geometry" />
        </mxCell>
        <mxCell id="4qrja9e9CyFXk5qWjHwn-170" value="&lt;font style=&quot;color: rgb(255, 181, 112);&quot;&gt;contracts&lt;/font&gt;" style="swimlane;whiteSpace=wrap;html=1;fillColor=#d5e8d4;strokeColor=#82b366;sketch=1;jiggle=2;curveFitting=1;align=center;verticalAlign=middle;fontFamily=Helvetica;fontSize=12;fontColor=default;fontStyle=1;" vertex="1" parent="4qrja9e9CyFXk5qWjHwn-1">
          <mxGeometry x="315" y="490" width="455" height="360" as="geometry" />
        </mxCell>
        <mxCell id="4qrja9e9CyFXk5qWjHwn-171" value="&lt;font style=&quot;color: rgb(255, 217, 102);&quot;&gt;Plugin&lt;/font&gt;" style="shape=table;startSize=30;container=1;collapsible=1;childLayout=tableLayout;fixedRows=1;rowLines=0;fontStyle=1;align=center;resizeLast=1;html=1;fillColor=#f5f5f5;strokeColor=#666666;sketch=1;curveFitting=1;jiggle=2;strokeWidth=1;fontColor=#333333;" vertex="1" parent="4qrja9e9CyFXk5qWjHwn-170">
          <mxGeometry x="15" y="40" width="180" height="300" as="geometry" />
        </mxCell>
        <mxCell id="4qrja9e9CyFXk5qWjHwn-172" value="" style="shape=tableRow;horizontal=0;startSize=0;swimlaneHead=0;swimlaneBody=0;fillColor=none;collapsible=0;dropTarget=0;points=[[0,0.5],[1,0.5]];portConstraint=eastwest;top=0;left=0;right=0;bottom=0;" vertex="1" parent="4qrja9e9CyFXk5qWjHwn-171">
          <mxGeometry y="30" width="180" height="30" as="geometry" />
        </mxCell>
        <mxCell id="4qrja9e9CyFXk5qWjHwn-173" value="&lt;b&gt;*&lt;/b&gt;" style="shape=partialRectangle;connectable=0;fillColor=none;top=0;left=0;bottom=0;right=0;fontStyle=0;overflow=hidden;whiteSpace=wrap;html=1;" vertex="1" parent="4qrja9e9CyFXk5qWjHwn-172">
          <mxGeometry width="30" height="30" as="geometry">
            <mxRectangle width="30" height="30" as="alternateBounds" />
          </mxGeometry>
        </mxCell>
        <mxCell id="4qrja9e9CyFXk5qWjHwn-174" value="&lt;u&gt;&lt;b&gt;loader[L]&lt;/b&gt;&lt;/u&gt;" style="shape=partialRectangle;connectable=0;fillColor=none;top=0;left=0;bottom=0;right=0;align=left;spacingLeft=6;fontStyle=0;overflow=hidden;whiteSpace=wrap;html=1;" vertex="1" parent="4qrja9e9CyFXk5qWjHwn-172">
          <mxGeometry x="30" width="150" height="30" as="geometry">
            <mxRectangle width="150" height="30" as="alternateBounds" />
          </mxGeometry>
        </mxCell>
        <mxCell id="4qrja9e9CyFXk5qWjHwn-175" value="" style="shape=tableRow;horizontal=0;startSize=0;swimlaneHead=0;swimlaneBody=0;fillColor=none;collapsible=0;dropTarget=0;points=[[0,0.5],[1,0.5]];portConstraint=eastwest;top=0;left=0;right=0;bottom=0;" vertex="1" parent="4qrja9e9CyFXk5qWjHwn-171">
          <mxGeometry y="60" width="180" height="30" as="geometry" />
        </mxCell>
        <mxCell id="4qrja9e9CyFXk5qWjHwn-176" value="&lt;b&gt;*&lt;/b&gt;" style="shape=partialRectangle;connectable=0;fillColor=none;top=0;left=0;bottom=0;right=0;fontStyle=0;overflow=hidden;whiteSpace=wrap;html=1;" vertex="1" parent="4qrja9e9CyFXk5qWjHwn-175">
          <mxGeometry width="30" height="30" as="geometry">
            <mxRectangle width="30" height="30" as="alternateBounds" />
          </mxGeometry>
        </mxCell>
        <mxCell id="4qrja9e9CyFXk5qWjHwn-177" value="&lt;u&gt;&lt;b&gt;service[T]&lt;/b&gt;&lt;/u&gt;" style="shape=partialRectangle;connectable=0;fillColor=none;top=0;left=0;bottom=0;right=0;align=left;spacingLeft=6;fontStyle=0;overflow=hidden;whiteSpace=wrap;html=1;" vertex="1" parent="4qrja9e9CyFXk5qWjHwn-175">
          <mxGeometry x="30" width="150" height="30" as="geometry">
            <mxRectangle width="150" height="30" as="alternateBounds" />
          </mxGeometry>
        </mxCell>
        <mxCell id="4qrja9e9CyFXk5qWjHwn-178" value="" style="shape=tableRow;horizontal=0;startSize=0;swimlaneHead=0;swimlaneBody=0;fillColor=none;collapsible=0;dropTarget=0;points=[[0,0.5],[1,0.5]];portConstraint=eastwest;top=0;left=0;right=0;bottom=1;" vertex="1" parent="4qrja9e9CyFXk5qWjHwn-171">
          <mxGeometry y="90" width="180" height="30" as="geometry" />
        </mxCell>
        <mxCell id="4qrja9e9CyFXk5qWjHwn-179" value="*" style="shape=partialRectangle;connectable=0;fillColor=none;top=0;left=0;bottom=0;right=0;fontStyle=1;overflow=hidden;whiteSpace=wrap;html=1;" vertex="1" parent="4qrja9e9CyFXk5qWjHwn-178">
          <mxGeometry width="30" height="30" as="geometry">
            <mxRectangle width="30" height="30" as="alternateBounds" />
          </mxGeometry>
        </mxCell>
        <mxCell id="4qrja9e9CyFXk5qWjHwn-180" value="error_handler" style="shape=partialRectangle;connectable=0;fillColor=none;top=0;left=0;bottom=0;right=0;align=left;spacingLeft=6;fontStyle=5;overflow=hidden;whiteSpace=wrap;html=1;" vertex="1" parent="4qrja9e9CyFXk5qWjHwn-178">
          <mxGeometry x="30" width="150" height="30" as="geometry">
            <mxRectangle width="150" height="30" as="alternateBounds" />
          </mxGeometry>
        </mxCell>
        <mxCell id="4qrja9e9CyFXk5qWjHwn-181" value="" style="shape=tableRow;horizontal=0;startSize=0;swimlaneHead=0;swimlaneBody=0;fillColor=none;collapsible=0;dropTarget=0;points=[[0,0.5],[1,0.5]];portConstraint=eastwest;top=0;left=0;right=0;bottom=0;" vertex="1" parent="4qrja9e9CyFXk5qWjHwn-171">
          <mxGeometry y="120" width="180" height="30" as="geometry" />
        </mxCell>
        <mxCell id="4qrja9e9CyFXk5qWjHwn-182" value="*" style="shape=partialRectangle;connectable=0;fillColor=none;top=0;left=0;bottom=0;right=0;editable=1;overflow=hidden;whiteSpace=wrap;html=1;" vertex="1" parent="4qrja9e9CyFXk5qWjHwn-181">
          <mxGeometry width="30" height="30" as="geometry">
            <mxRectangle width="30" height="30" as="alternateBounds" />
          </mxGeometry>
        </mxCell>
        <mxCell id="4qrja9e9CyFXk5qWjHwn-183" value="register()" style="shape=partialRectangle;connectable=0;fillColor=none;top=0;left=0;bottom=0;right=0;align=left;spacingLeft=6;overflow=hidden;whiteSpace=wrap;html=1;" vertex="1" parent="4qrja9e9CyFXk5qWjHwn-181">
          <mxGeometry x="30" width="150" height="30" as="geometry">
            <mxRectangle width="150" height="30" as="alternateBounds" />
          </mxGeometry>
        </mxCell>
        <mxCell id="4qrja9e9CyFXk5qWjHwn-184" value="" style="shape=tableRow;horizontal=0;startSize=0;swimlaneHead=0;swimlaneBody=0;fillColor=none;collapsible=0;dropTarget=0;points=[[0,0.5],[1,0.5]];portConstraint=eastwest;top=0;left=0;right=0;bottom=0;" vertex="1" parent="4qrja9e9CyFXk5qWjHwn-171">
          <mxGeometry y="150" width="180" height="30" as="geometry" />
        </mxCell>
        <mxCell id="4qrja9e9CyFXk5qWjHwn-185" value="*" style="shape=partialRectangle;connectable=0;fillColor=none;top=0;left=0;bottom=0;right=0;editable=1;overflow=hidden;whiteSpace=wrap;html=1;" vertex="1" parent="4qrja9e9CyFXk5qWjHwn-184">
          <mxGeometry width="30" height="30" as="geometry">
            <mxRectangle width="30" height="30" as="alternateBounds" />
          </mxGeometry>
        </mxCell>
        <mxCell id="4qrja9e9CyFXk5qWjHwn-186" value="init()" style="shape=partialRectangle;connectable=0;fillColor=none;top=0;left=0;bottom=0;right=0;align=left;spacingLeft=6;overflow=hidden;whiteSpace=wrap;html=1;" vertex="1" parent="4qrja9e9CyFXk5qWjHwn-184">
          <mxGeometry x="30" width="150" height="30" as="geometry">
            <mxRectangle width="150" height="30" as="alternateBounds" />
          </mxGeometry>
        </mxCell>
        <mxCell id="4qrja9e9CyFXk5qWjHwn-187" value="" style="shape=tableRow;horizontal=0;startSize=0;swimlaneHead=0;swimlaneBody=0;fillColor=none;collapsible=0;dropTarget=0;points=[[0,0.5],[1,0.5]];portConstraint=eastwest;top=0;left=0;right=0;bottom=0;" vertex="1" parent="4qrja9e9CyFXk5qWjHwn-171">
          <mxGeometry y="180" width="180" height="30" as="geometry" />
        </mxCell>
        <mxCell id="4qrja9e9CyFXk5qWjHwn-188" value="*" style="shape=partialRectangle;connectable=0;fillColor=none;top=0;left=0;bottom=0;right=0;editable=1;overflow=hidden;whiteSpace=wrap;html=1;" vertex="1" parent="4qrja9e9CyFXk5qWjHwn-187">
          <mxGeometry width="30" height="30" as="geometry">
            <mxRectangle width="30" height="30" as="alternateBounds" />
          </mxGeometry>
        </mxCell>
        <mxCell id="4qrja9e9CyFXk5qWjHwn-189" value="start()" style="shape=partialRectangle;connectable=0;fillColor=none;top=0;left=0;bottom=0;right=0;align=left;spacingLeft=6;overflow=hidden;whiteSpace=wrap;html=1;" vertex="1" parent="4qrja9e9CyFXk5qWjHwn-187">
          <mxGeometry x="30" width="150" height="30" as="geometry">
            <mxRectangle width="150" height="30" as="alternateBounds" />
          </mxGeometry>
        </mxCell>
        <mxCell id="4qrja9e9CyFXk5qWjHwn-190" value="" style="shape=tableRow;horizontal=0;startSize=0;swimlaneHead=0;swimlaneBody=0;fillColor=none;collapsible=0;dropTarget=0;points=[[0,0.5],[1,0.5]];portConstraint=eastwest;top=0;left=0;right=0;bottom=0;" vertex="1" parent="4qrja9e9CyFXk5qWjHwn-171">
          <mxGeometry y="210" width="180" height="30" as="geometry" />
        </mxCell>
        <mxCell id="4qrja9e9CyFXk5qWjHwn-191" value="*" style="shape=partialRectangle;connectable=0;fillColor=none;top=0;left=0;bottom=0;right=0;editable=1;overflow=hidden;whiteSpace=wrap;html=1;" vertex="1" parent="4qrja9e9CyFXk5qWjHwn-190">
          <mxGeometry width="30" height="30" as="geometry">
            <mxRectangle width="30" height="30" as="alternateBounds" />
          </mxGeometry>
        </mxCell>
        <mxCell id="4qrja9e9CyFXk5qWjHwn-192" value="stop()" style="shape=partialRectangle;connectable=0;fillColor=none;top=0;left=0;bottom=0;right=0;align=left;spacingLeft=6;overflow=hidden;whiteSpace=wrap;html=1;" vertex="1" parent="4qrja9e9CyFXk5qWjHwn-190">
          <mxGeometry x="30" width="150" height="30" as="geometry">
            <mxRectangle width="150" height="30" as="alternateBounds" />
          </mxGeometry>
        </mxCell>
        <mxCell id="4qrja9e9CyFXk5qWjHwn-193" value="" style="shape=tableRow;horizontal=0;startSize=0;swimlaneHead=0;swimlaneBody=0;fillColor=none;collapsible=0;dropTarget=0;points=[[0,0.5],[1,0.5]];portConstraint=eastwest;top=0;left=0;right=0;bottom=0;" vertex="1" parent="4qrja9e9CyFXk5qWjHwn-171">
          <mxGeometry y="240" width="180" height="30" as="geometry" />
        </mxCell>
        <mxCell id="4qrja9e9CyFXk5qWjHwn-194" value="*" style="shape=partialRectangle;connectable=0;fillColor=none;top=0;left=0;bottom=0;right=0;editable=1;overflow=hidden;whiteSpace=wrap;html=1;" vertex="1" parent="4qrja9e9CyFXk5qWjHwn-193">
          <mxGeometry width="30" height="30" as="geometry">
            <mxRectangle width="30" height="30" as="alternateBounds" />
          </mxGeometry>
        </mxCell>
        <mxCell id="4qrja9e9CyFXk5qWjHwn-195" value="load()" style="shape=partialRectangle;connectable=0;fillColor=none;top=0;left=0;bottom=0;right=0;align=left;spacingLeft=6;overflow=hidden;whiteSpace=wrap;html=1;" vertex="1" parent="4qrja9e9CyFXk5qWjHwn-193">
          <mxGeometry x="30" width="150" height="30" as="geometry">
            <mxRectangle width="150" height="30" as="alternateBounds" />
          </mxGeometry>
        </mxCell>
        <mxCell id="4qrja9e9CyFXk5qWjHwn-196" value="" style="shape=tableRow;horizontal=0;startSize=0;swimlaneHead=0;swimlaneBody=0;fillColor=none;collapsible=0;dropTarget=0;points=[[0,0.5],[1,0.5]];portConstraint=eastwest;top=0;left=0;right=0;bottom=0;" vertex="1" parent="4qrja9e9CyFXk5qWjHwn-171">
          <mxGeometry y="270" width="180" height="30" as="geometry" />
        </mxCell>
        <mxCell id="4qrja9e9CyFXk5qWjHwn-197" value="*" style="shape=partialRectangle;connectable=0;fillColor=none;top=0;left=0;bottom=0;right=0;editable=1;overflow=hidden;whiteSpace=wrap;html=1;" vertex="1" parent="4qrja9e9CyFXk5qWjHwn-196">
          <mxGeometry width="30" height="30" as="geometry">
            <mxRectangle width="30" height="30" as="alternateBounds" />
          </mxGeometry>
        </mxCell>
        <mxCell id="4qrja9e9CyFXk5qWjHwn-198" value="safe_load()" style="shape=partialRectangle;connectable=0;fillColor=none;top=0;left=0;bottom=0;right=0;align=left;spacingLeft=6;overflow=hidden;whiteSpace=wrap;html=1;" vertex="1" parent="4qrja9e9CyFXk5qWjHwn-196">
          <mxGeometry x="30" width="150" height="30" as="geometry">
            <mxRectangle width="150" height="30" as="alternateBounds" />
          </mxGeometry>
        </mxCell>
        <mxCell id="4qrja9e9CyFXk5qWjHwn-230" value="&lt;b&gt;&lt;font style=&quot;color: rgb(255, 181, 112);&quot;&gt;Handler[Service, Loader]&lt;/font&gt;&lt;/b&gt;" style="shape=process;whiteSpace=wrap;html=1;backgroundOutline=1;fillColor=#dae8fc;strokeColor=#6c8ebf;rounded=1;sketch=1;curveFitting=1;jiggle=2;" vertex="1" parent="4qrja9e9CyFXk5qWjHwn-170">
          <mxGeometry x="275" y="265" width="120" height="60" as="geometry" />
        </mxCell>
        <mxCell id="4qrja9e9CyFXk5qWjHwn-231" style="edgeStyle=orthogonalEdgeStyle;rounded=0;orthogonalLoop=1;jettySize=auto;html=1;entryX=0;entryY=0.5;entryDx=0;entryDy=0;fillColor=#dae8fc;strokeColor=#6c8ebf;strokeWidth=2;sketch=1;curveFitting=1;jiggle=2;curved=1;" edge="1" parent="4qrja9e9CyFXk5qWjHwn-170" source="4qrja9e9CyFXk5qWjHwn-193" target="4qrja9e9CyFXk5qWjHwn-230">
          <mxGeometry relative="1" as="geometry" />
        </mxCell>
        <mxCell id="4qrja9e9CyFXk5qWjHwn-232" style="edgeStyle=orthogonalEdgeStyle;rounded=0;orthogonalLoop=1;jettySize=auto;html=1;exitX=1;exitY=0.5;exitDx=0;exitDy=0;entryX=0;entryY=0.5;entryDx=0;entryDy=0;fillColor=#dae8fc;strokeColor=#6c8ebf;strokeWidth=2;sketch=1;curveFitting=1;jiggle=2;curved=1;" edge="1" parent="4qrja9e9CyFXk5qWjHwn-170" source="4qrja9e9CyFXk5qWjHwn-196" target="4qrja9e9CyFXk5qWjHwn-230">
          <mxGeometry relative="1" as="geometry">
            <mxPoint x="265" y="290" as="targetPoint" />
          </mxGeometry>
        </mxCell>
        <mxCell id="4qrja9e9CyFXk5qWjHwn-233" style="edgeStyle=orthogonalEdgeStyle;rounded=0;orthogonalLoop=1;jettySize=auto;html=1;entryX=0.5;entryY=1;entryDx=0;entryDy=0;exitX=0.45;exitY=0.967;exitDx=0;exitDy=0;exitPerimeter=0;curved=1;sketch=1;curveFitting=1;jiggle=2;strokeWidth=2;dashed=1;endArrow=diamondThin;endFill=1;fillColor=#f5f5f5;strokeColor=#666666;" edge="1" parent="4qrja9e9CyFXk5qWjHwn-1" source="4qrja9e9CyFXk5qWjHwn-167" target="4qrja9e9CyFXk5qWjHwn-230">
          <mxGeometry relative="1" as="geometry">
            <Array as="points">
              <mxPoint x="121" y="900" />
              <mxPoint x="650" y="900" />
            </Array>
          </mxGeometry>
        </mxCell>
        <mxCell id="4qrja9e9CyFXk5qWjHwn-234" style="edgeStyle=orthogonalEdgeStyle;rounded=0;orthogonalLoop=1;jettySize=auto;html=1;curved=1;sketch=1;curveFitting=1;jiggle=2;fillColor=#f5f5f5;strokeColor=#666666;strokeWidth=2;dashed=1;" edge="1" parent="4qrja9e9CyFXk5qWjHwn-1" source="4qrja9e9CyFXk5qWjHwn-62" target="4qrja9e9CyFXk5qWjHwn-230">
          <mxGeometry relative="1" as="geometry" />
        </mxCell>
        <mxCell id="4qrja9e9CyFXk5qWjHwn-4" value="Database" style="shape=datastore;whiteSpace=wrap;html=1;sketch=1;curveFitting=1;jiggle=2;strokeWidth=2;" vertex="1" parent="1">
          <mxGeometry x="920" y="250" width="60" height="60" as="geometry" />
        </mxCell>
        <mxCell id="4qrja9e9CyFXk5qWjHwn-5" style="edgeStyle=orthogonalEdgeStyle;rounded=0;orthogonalLoop=1;jettySize=auto;html=1;shape=flexArrow;fillColor=#f8cecc;strokeColor=#b85450;startArrow=block;sketch=1;curveFitting=1;jiggle=2;strokeWidth=2;entryX=0;entryY=0.5;entryDx=0;entryDy=0;exitX=1;exitY=0.5;exitDx=0;exitDy=0;" edge="1" parent="1" source="4qrja9e9CyFXk5qWjHwn-2" target="4qrja9e9CyFXk5qWjHwn-4">
          <mxGeometry relative="1" as="geometry">
            <mxPoint x="820" y="205" as="sourcePoint" />
          </mxGeometry>
        </mxCell>
        <mxCell id="4qrja9e9CyFXk5qWjHwn-236" style="edgeStyle=orthogonalEdgeStyle;rounded=0;orthogonalLoop=1;jettySize=auto;html=1;entryX=0;entryY=0.5;entryDx=0;entryDy=0;curved=1;strokeWidth=2;fillColor=#f8cecc;strokeColor=#b85450;shape=flexArrow;sketch=1;curveFitting=1;jiggle=2;" edge="1" parent="1" source="4qrja9e9CyFXk5qWjHwn-235" target="4qrja9e9CyFXk5qWjHwn-164">
          <mxGeometry relative="1" as="geometry" />
        </mxCell>
        <mxCell id="4qrja9e9CyFXk5qWjHwn-235" value="" style="sketch=0;pointerEvents=1;shadow=0;dashed=0;html=1;strokeColor=none;fillColor=#505050;labelPosition=center;verticalLabelPosition=bottom;verticalAlign=top;outlineConnect=0;align=center;shape=mxgraph.office.services.excel_services;" vertex="1" parent="1">
          <mxGeometry x="-140" y="580.5" width="60" height="49" as="geometry" />
        </mxCell>
        <mxCell id="4qrja9e9CyFXk5qWjHwn-237" value="&lt;font style=&quot;color: rgb(255, 181, 112);&quot;&gt;Plugins&lt;/font&gt;" style="swimlane;whiteSpace=wrap;html=1;sketch=1;jiggle=2;curveFitting=1;strokeColor=#82b366;align=center;verticalAlign=middle;fontFamily=Helvetica;fontSize=12;fontColor=default;fontStyle=1;fillColor=#d5e8d4;" vertex="1" parent="1">
          <mxGeometry x="320" y="960" width="320" height="210" as="geometry" />
        </mxCell>
        <mxCell id="4qrja9e9CyFXk5qWjHwn-238" value="&lt;b&gt;&lt;font style=&quot;color: rgb(255, 181, 112);&quot;&gt;. . .&lt;/font&gt;&lt;/b&gt;" style="shape=process;whiteSpace=wrap;html=1;backgroundOutline=1;fillColor=#d5e8d4;strokeColor=#82b366;rounded=1;sketch=1;jiggle=2;curveFitting=1;align=center;verticalAlign=middle;fontFamily=Helvetica;fontSize=12;" vertex="1" parent="4qrja9e9CyFXk5qWjHwn-237">
          <mxGeometry x="20" y="90" width="120" height="60" as="geometry" />
        </mxCell>
        <mxCell id="4qrja9e9CyFXk5qWjHwn-239" value="&lt;b&gt;&lt;font style=&quot;color: rgb(255, 181, 112);&quot;&gt;. . .&lt;/font&gt;&lt;/b&gt;" style="shape=process;whiteSpace=wrap;html=1;backgroundOutline=1;fillColor=#d5e8d4;strokeColor=#82b366;rounded=1;sketch=1;jiggle=2;curveFitting=1;align=center;verticalAlign=middle;fontFamily=Helvetica;fontSize=12;" vertex="1" parent="4qrja9e9CyFXk5qWjHwn-237">
          <mxGeometry x="180" y="90" width="120" height="60" as="geometry" />
        </mxCell>
      </root>
    </mxGraphModel>
  </diagram>
</mxfile>
